<?xml version="1.0" standalone="no"?>
<!DOCTYPE svg PUBLIC "-//W3C//DTD SVG 20010904//EN"
 "http://www.w3.org/TR/2001/REC-SVG-20010904/DTD/svg10.dtd">
<svg version="1.0" xmlns="http://www.w3.org/2000/svg"
 width="120.000000pt" height="120.000000pt" viewBox="0 0 120.000000 120.000000"
 preserveAspectRatio="xMidYMid meet">
<metadata>
Created by potrace 1.14, written by Peter Selinger 2001-2017
</metadata>
<g transform="translate(0.000000,120.000000) scale(0.100000,-0.100000)"
fill="#000000" stroke="none">
<path d="M917 1162 c-22 -24 -21 -55 1 -75 37 -34 92 -11 92 38 0 50 -60 73
-93 37z m53 -37 c0 -8 -7 -15 -15 -15 -8 0 -15 7 -15 15 0 8 7 15 15 15 8 0
15 -7 15 -15z"/>
<path d="M284 1123 c-79 -42 -125 -73 -131 -88 -16 -44 60 -145 110 -145 24 0
39 -21 145 -210 10 -19 40 -71 67 -115 26 -44 51 -88 56 -97 8 -14 2 -22 -31
-43 -50 -32 -52 -57 -9 -132 27 -47 30 -57 17 -69 -10 -10 -22 -12 -43 -5 -17
4 -43 6 -59 4 -18 -3 -36 3 -48 14 -30 27 -129 25 -160 -3 -18 -17 -28 -20
-46 -13 -29 11 -86 -11 -101 -40 -10 -18 -15 -84 -12 -143 1 -17 35 -18 561
-18 441 0 560 3 561 13 4 44 -3 132 -11 148 -18 32 -83 56 -110 39 -9 -5 -25
0 -45 16 -22 16 -45 24 -72 24 -37 0 -40 2 -38 27 3 51 -14 100 -62 182 -52
90 -67 97 -126 68 -22 -10 -41 -17 -43 -14 -2 2 -58 97 -124 210 l-120 207 6
58 c4 48 1 63 -18 96 -32 54 -55 60 -114 29z m55 -53 c-12 -8 -49 -30 -81 -48
-50 -28 -59 -31 -64 -17 -8 19 -15 13 71 63 54 31 73 38 84 29 11 -9 9 -14
-10 -27z m41 -56 c0 -38 -18 -64 -53 -79 -35 -14 -80 -10 -96 9 -8 9 9 23 62
54 40 23 75 42 80 42 4 0 7 -12 7 -26z m63 -207 c36 -62 74 -128 85 -147 10
-19 36 -63 57 -98 20 -35 35 -65 33 -66 -1 -2 -12 -8 -24 -14 -19 -10 -29 4
-141 198 -119 207 -120 209 -99 224 11 8 22 15 23 15 1 1 31 -50 66 -112z
m317 -310 c-1 -19 -254 -157 -262 -143 -11 16 5 29 131 100 109 62 131 70 131
43z m72 -126 c16 -42 18 -84 7 -119 -10 -31 -14 -33 -42 -29 -18 2 -45 0 -61
-4 -24 -7 -34 -5 -53 13 -16 15 -40 23 -76 26 -39 3 -57 9 -66 24 -15 24 -6
36 45 63 21 11 74 41 118 67 l80 47 19 -31 c10 -17 23 -43 29 -57z m-478 -183
c11 -15 20 -18 38 -12 41 13 67 12 79 -2 17 -21 35 -17 53 11 19 29 71 45 106
33 14 -5 35 -21 47 -35 20 -24 24 -26 45 -14 34 17 59 20 86 7 19 -8 26 -7 33
7 11 19 57 44 77 41 6 -1 19 -2 27 -3 8 0 26 -13 41 -28 24 -24 30 -25 56 -15
32 12 77 -1 79 -22 5 -55 4 -88 -4 -93 -6 -4 -242 -6 -526 -6 l-515 0 -1 43
c-1 25 5 50 14 61 18 22 58 33 66 18 11 -16 44 -10 55 11 23 43 114 41 144 -2z"/>
<path d="M584 1120 c-24 -10 -33 -21 -39 -49 -5 -27 31 -62 58 -57 12 3 25 5
28 5 3 1 11 13 17 27 21 44 -20 90 -64 74z m29 -45 c8 -18 -11 -31 -25 -17
-11 11 -3 32 12 32 4 0 10 -7 13 -15z"/>
<path d="M962 944 c-24 -17 -30 -65 -9 -82 28 -22 56 -23 76 -3 26 26 27 55 1
81 -24 24 -38 25 -68 4z m40 -56 c-15 -15 -26 -4 -18 18 5 13 9 15 18 6 9 -9
9 -15 0 -24z"/>
<path d="M706 838 c-41 -23 -35 -93 10 -104 51 -13 94 48 60 85 -22 24 -48 31
-70 19z m37 -59 c-17 -17 -37 -1 -22 17 8 10 15 12 23 4 7 -7 7 -13 -1 -21z"/>
<path d="M167 732 c-36 -39 -10 -92 43 -92 31 0 50 23 50 59 0 46 -62 68 -93
33z m53 -37 c0 -8 -7 -15 -15 -15 -8 0 -15 7 -15 15 0 8 7 15 15 15 8 0 15 -7
15 -15z"/>
<path d="M937 602 c-23 -25 -21 -58 3 -82 16 -16 24 -18 47 -9 15 6 31 16 35
22 35 54 -42 116 -85 69z m51 -39 c-4 -22 -22 -20 -26 1 -2 10 3 16 13 16 10
0 15 -7 13 -17z"/>
<path d="M275 516 c-21 -31 -12 -63 21 -78 29 -13 70 4 77 32 15 58 -66 95
-98 46z m56 -31 c-1 -15 -24 -12 -29 3 -3 9 2 13 12 10 10 -1 17 -7 17 -13z"/>
</g>
</svg>
